<svg xmlns="http://www.w3.org/2000/svg" xmlns:xlink="http://www.w3.org/1999/xlink" version="1.1" width="256" height="256" viewBox="0 0 256 256" xml:space="preserve">

<defs>
</defs>
<g style="stroke: none; stroke-width: 0; stroke-dasharray: none; stroke-linecap: butt; stroke-linejoin: miter; stroke-miterlimit: 10; fill: none; fill-rule: nonzero; opacity: 1;" transform="translate(1.4065934065934016 1.4065934065934016) scale(2.81 2.81)" >
	<path d="M 65.719 20.507 H 37.15 c -0.565 0 -1.023 -0.458 -1.023 -1.023 v -4.178 C 36.127 6.867 42.994 0 51.434 0 s 15.307 6.867 15.307 15.307 v 4.178 C 66.741 20.05 66.284 20.507 65.719 20.507 z M 38.172 18.462 h 26.524 v -3.155 c 0 -7.312 -5.949 -13.262 -13.262 -13.262 c -7.312 0 -13.262 5.949 -13.262 13.262 V 18.462 z" style="stroke: none; stroke-width: 1; stroke-dasharray: none; stroke-linecap: butt; stroke-linejoin: miter; stroke-miterlimit: 10; fill: rgb(240,59,97); fill-rule: nonzero; opacity: 1;" transform=" matrix(1 0 0 1 0 0) " stroke-linecap="round" />
	<path d="M 55.5 20.507 H 26.93 c -0.565 0 -1.023 -0.458 -1.023 -1.023 v -4.178 C 25.908 6.867 32.774 0 41.215 0 c 8.441 0 15.308 6.867 15.308 15.307 v 4.178 C 56.522 20.05 56.065 20.507 55.5 20.507 z M 27.953 18.462 h 26.524 v -3.155 c 0 -7.312 -5.95 -13.262 -13.262 -13.262 S 27.953 7.995 27.953 15.307 V 18.462 z" style="stroke: none; stroke-width: 1; stroke-dasharray: none; stroke-linecap: butt; stroke-linejoin: miter; stroke-miterlimit: 10; fill: rgb(254,85,120); fill-rule: nonzero; opacity: 1;" transform=" matrix(1 0 0 1 0 0) " stroke-linecap="round" />
	<polygon points="84.46,90 25.98,90 28.9,18.47 75.7,18.47 " style="stroke: none; stroke-width: 1; stroke-dasharray: none; stroke-linecap: butt; stroke-linejoin: miter; stroke-miterlimit: 10; fill: rgb(240,59,97); fill-rule: nonzero; opacity: 1;" transform="  matrix(1 0 0 1 0 0) "/>
	<polygon points="64.02,90 5.54,90 14.3,18.47 66.94,18.47 " style="stroke: none; stroke-width: 1; stroke-dasharray: none; stroke-linecap: butt; stroke-linejoin: miter; stroke-miterlimit: 10; fill: rgb(254,85,120); fill-rule: nonzero; opacity: 1;" transform="  matrix(1 0 0 1 0 0) "/>
	<path d="M 39.318 66.427 c -0.439 0.439 -1.15 0.439 -1.589 0 L 25.74 54.439 c -1.845 -1.845 -2.724 -4.399 -2.381 -7.047 c 0.185 -1.429 0.749 -2.795 1.626 -3.937 c 1.679 -2.188 4.209 -3.386 6.914 -3.312 c 2.199 0.06 4.274 1.036 5.83 2.592 l 0 0 c 0.439 0.439 1.15 0.439 1.589 0 l 0.018 -0.018 c 1.534 -1.534 3.578 -2.496 5.746 -2.572 c 2.349 -0.082 4.571 0.796 6.223 2.449 l 0 0 c 1.583 1.582 2.454 3.686 2.454 5.924 c 0 2.238 -0.871 4.341 -2.454 5.924 L 39.318 66.427 z" style="stroke: none; stroke-width: 1; stroke-dasharray: none; stroke-linecap: butt; stroke-linejoin: miter; stroke-miterlimit: 10; fill: rgb(238,234,241); fill-rule: nonzero; opacity: 1;" transform=" matrix(1 0 0 1 0 0) " stroke-linecap="round" />
</g>
</svg>