<svg xmlns="http://www.w3.org/2000/svg" xmlns:xlink="http://www.w3.org/1999/xlink" version="1.1" width="256" height="256" viewBox="0 0 256 256" xml:space="preserve">

<defs>
</defs>
<g style="stroke: none; stroke-width: 0; stroke-dasharray: none; stroke-linecap: butt; stroke-linejoin: miter; stroke-miterlimit: 10; fill: none; fill-rule: nonzero; opacity: 1;" transform="translate(45.02412451361867 45.024124513618645) scale(1.83 1.83)" >
	<circle cx="31.464" cy="31.464" r="30.464" style="stroke: none; stroke-width: 1; stroke-dasharray: none; stroke-linecap: butt; stroke-linejoin: miter; stroke-miterlimit: 10; fill: rgb(255,255,255); fill-rule: nonzero; opacity: 1;" transform="  matrix(1 0 0 1 0 0) "/>
	<path d="M 87.824 87.824 L 87.824 87.824 c -1.569 1.569 -4.112 1.569 -5.68 0 L 58.668 64.348 c -1.569 -1.569 -1.569 -4.112 0 -5.68 l 0 0 c 1.569 -1.569 4.112 -1.569 5.68 0 l 23.475 23.475 C 89.392 83.712 89.392 86.255 87.824 87.824 z" style="stroke: none; stroke-width: 1; stroke-dasharray: none; stroke-linecap: butt; stroke-linejoin: miter; stroke-miterlimit: 10; fill: rgb(112,79,56); fill-rule: nonzero; opacity: 1;" transform=" matrix(1 0 0 1 0 0) " stroke-linecap="round" />
	<path d="M 31.464 62.912 c -8.057 0 -16.114 -3.066 -22.248 -9.2 C 3.273 47.77 0 39.868 0 31.464 S 3.273 15.158 9.216 9.216 C 15.158 3.273 23.06 0 31.464 0 S 47.77 3.273 53.712 9.216 c 12.268 12.267 12.268 32.228 0 44.496 C 47.578 59.846 39.521 62.912 31.464 62.912 z M 31.464 2 c -7.87 0 -15.269 3.065 -20.834 8.63 S 2 23.594 2 31.464 c 0 7.87 3.065 15.269 8.63 20.834 c 11.488 11.487 30.179 11.487 41.668 0 c 11.487 -11.488 11.487 -30.18 0 -41.668 C 46.732 5.065 39.333 2 31.464 2 z" style="stroke: none; stroke-width: 1; stroke-dasharray: none; stroke-linecap: butt; stroke-linejoin: miter; stroke-miterlimit: 10; fill: rgb(112,79,56); fill-rule: nonzero; opacity: 1;" transform=" matrix(1 0 0 1 0 0) " stroke-linecap="round" />
	<path d="M 58.668 59.668 c -0.256 0 -0.512 -0.098 -0.707 -0.293 l -5.663 -5.663 c -0.391 -0.391 -0.391 -1.023 0 -1.414 s 1.023 -0.391 1.414 0 l 5.663 5.663 c 0.391 0.391 0.391 1.023 0 1.414 C 59.18 59.57 58.924 59.668 58.668 59.668 z" style="stroke: none; stroke-width: 1; stroke-dasharray: none; stroke-linecap: butt; stroke-linejoin: miter; stroke-miterlimit: 10; fill: rgb(112,79,56); fill-rule: nonzero; opacity: 1;" transform=" matrix(1 0 0 1 0 0) " stroke-linecap="round" />
	<path d="M 84.983 90 c -1.34 0 -2.6 -0.521 -3.547 -1.47 L 57.961 65.056 c -1.956 -1.957 -1.955 -5.14 0 -7.095 c 0.947 -0.947 2.207 -1.469 3.548 -1.469 c 1.34 0 2.6 0.521 3.547 1.469 L 88.53 81.437 c 0.948 0.947 1.47 2.207 1.47 3.547 s -0.521 2.6 -1.47 3.547 l 0 0 l 0 0 l 0 0 C 87.583 89.479 86.323 90 84.983 90 z M 61.509 58.492 c -0.807 0 -1.564 0.313 -2.134 0.883 c -1.176 1.176 -1.176 3.09 0 4.267 l 23.476 23.475 c 1.141 1.141 3.125 1.141 4.266 0 l 0 0 c 0.57 -0.57 0.884 -1.327 0.884 -2.133 s -0.313 -1.563 -0.884 -2.133 L 63.642 59.375 C 63.072 58.806 62.314 58.492 61.509 58.492 z" style="stroke: none; stroke-width: 1; stroke-dasharray: none; stroke-linecap: butt; stroke-linejoin: miter; stroke-miterlimit: 10; fill: rgb(112,79,56); fill-rule: nonzero; opacity: 1;" transform=" matrix(1 0 0 1 0 0) " stroke-linecap="round" />
	<path d="M 41.728 40.031 H 23.396 c -0.435 0 -0.819 -0.281 -0.952 -0.694 l -5.296 -16.505 h -5.945 c -0.552 0 -1 -0.448 -1 -1 s 0.448 -1 1 -1 h 6.674 c 0.435 0 0.819 0.281 0.952 0.694 l 5.296 16.505 H 40.98 l 3.259 -11.012 H 25.555 c -0.552 0 -1 -0.448 -1 -1 s 0.448 -1 1 -1 h 20.023 c 0.315 0 0.612 0.149 0.801 0.401 c 0.189 0.253 0.248 0.58 0.158 0.882 l -3.851 13.012 C 42.561 39.74 42.17 40.031 41.728 40.031 z" style="stroke: none; stroke-width: 1; stroke-dasharray: none; stroke-linecap: butt; stroke-linejoin: miter; stroke-miterlimit: 10; fill: rgb(112,79,56); fill-rule: nonzero; opacity: 1;" transform=" matrix(1 0 0 1 0 0) " stroke-linecap="round" />
	<circle cx="25.322" cy="45.032000000000004" r="2.072" style="stroke: none; stroke-width: 1; stroke-dasharray: none; stroke-linecap: butt; stroke-linejoin: miter; stroke-miterlimit: 10; fill: rgb(112,79,56); fill-rule: nonzero; opacity: 1;" transform="  matrix(1 0 0 1 0 0) "/>
	<circle cx="40.392" cy="45.032000000000004" r="2.072" style="stroke: none; stroke-width: 1; stroke-dasharray: none; stroke-linecap: butt; stroke-linejoin: miter; stroke-miterlimit: 10; fill: rgb(112,79,56); fill-rule: nonzero; opacity: 1;" transform="  matrix(1 0 0 1 0 0) "/>
</g>
</svg>